<?xml version="1.0" encoding="utf-8"?>
<!-- Generator: Adobe Illustrator 19.1.0, SVG Export Plug-In . SVG Version: 6.00 Build 0)  -->
<svg version="1.1" id="Layer_1" xmlns="http://www.w3.org/2000/svg" xmlns:xlink="http://www.w3.org/1999/xlink" x="0px" y="0px"
	 viewBox="0 0 29.8 15.9" style="enable-background:new 0 0 29.8 15.9;" xml:space="preserve">
<style type="text/css">
	.st0{fill:#33C8C2;}
</style>
<g>
	<path class="st0" d="M6,11.9c-0.2,0-0.3-0.1-0.5-0.2L0.2,6.4c-0.3-0.3-0.3-0.7,0-0.9l5.3-5.3c0.3-0.3,0.7-0.3,0.9,0
		c0.3,0.3,0.3,0.7,0,0.9L1.6,6l4.8,4.8c0.3,0.3,0.3,0.7,0,0.9C6.3,11.8,6.1,11.9,6,11.9z"/>
	<path class="st0" d="M24.5,15.9c-0.4,0-0.7-0.3-0.7-0.7s0.3-0.7,0.7-0.7c2.2,0,4-1.8,4-4s-1.8-4-4-4H1.3C1,6.6,0.7,6.3,0.7,6
		S1,5.3,1.3,5.3h23.2c2.9,0,5.3,2.4,5.3,5.3S27.4,15.9,24.5,15.9z"/>
</g>
</svg>
